<svg version="1.2" xmlns="http://www.w3.org/2000/svg" viewBox="0 0 1000 1000" width="1000" height="1000">
	<title>9276431</title>
	<style>
		.s0 { fill: #ffffff } 
		.s1 { fill: #969696 } 
		.s2 { fill: none;stroke: #121d30;stroke-miterlimit:10;stroke-width: 1.5 } 
		.s3 { fill: #121d30 } 
		.s4 { fill: #d28a7b } 
		.s5 { fill: #cb705d } 
		.s6 { fill: #edb837 } 
		.s7 { fill: #2e363d } 
		.s8 { fill: none;stroke: #ffffff;stroke-miterlimit:10;stroke-width: 1.5 } 
		.s9 { fill: #5c5c5c } 
		.s10 { fill: #e69230 } 
		.s11 { fill: #dedede } 
		.s12 { fill: none;stroke: #121d30;stroke-miterlimit:10;stroke-width: 2 } 
	</style>
	<g id="BACKGROUND">
		<path id="&lt;Path&gt;" class="s0" d="m1000 1000h-1000v-1000h1000z"/>
	</g>
	<g id="OBJECTS">
		<g id="&lt;Group&gt;" style="opacity: .4">
			<path id="&lt;Path&gt;" class="s1" d="m945.3 541.9c-12.5-39.8-44.7-69.7-73.9-99.7-29.1-29.9-57.8-65.1-59.9-106.8-2.9-60 50.3-112.7 44.8-172.6-4.7-52-55.4-91.1-107.3-97.1-51.9-5.9-103.4 14.4-148.5 40.8-45 26.5-86.4 59.3-133.3 82.2-67.6 33.1-143.5 44-217.3 59.2-54.2 11.2-110.5 26.3-150.9 64.3-30.9 29.1-50 71.2-49 113.6 1 42.5 22.9 84.5 58.4 107.8 55.1 36 127.9 22.9 191.2 4.9 63.3-18.1 131.5-39.7 193.3-17 61.9 22.7 100.4 83.9 154.3 121.8 59 41.5 141.6 49.7 212.4 44.8 66.6-4.6 104.3-86.7 85.7-146.2z"/>
			<path id="&lt;Path&gt;" class="s1" d="m160.8 588.3q-31.8-12.9-63.5-25.7c-7-2.8-14.5-5.6-21.9-4.4-13.7 2.4-21.4 18.8-18.9 32.6 2.5 13.7 12.3 24.9 22.4 34.5 13.2 12.5 28 23.9 44.9 30.7 16.9 6.8 36.3 8.7 53.4 2.5 12.8-4.7 36.1-21.5 32.6-37.7-3.5-16.1-36.2-27.4-49-32.5z"/>
		</g>
		<g id="&lt;Group&gt;">
			<g id="&lt;Group&gt;">
				<path id="&lt;Path&gt;" class="s2" d="m894.6 846h-275v-372.2h275z"/>
				<g id="&lt;Group&gt;">
					<g id="&lt;Group&gt;">
						<path id="&lt;Path&gt;" class="s2" d="m881.4 491.7v336.4h-248.5v-336.4z"/>
						<g id="&lt;Group&gt;">
							<g id="&lt;Group&gt;">
								<path id="&lt;Path&gt;" class="s2" d="m788.2 701.1h-62.2v-20.5h62.2z"/>
								<path id="&lt;Path&gt;" class="s2" d="m796.1 719.7h-77.9v-8.4h77.9z"/>
							</g>
							<g id="&lt;Group&gt;">
								<path id="&lt;Path&gt;" class="s2" d="m661.3 821.7h-21.1 10.7"/>
								<path id="&lt;Path&gt;" class="s2" d="m640.2 814.7h7.7"/>
							</g>
							<g id="&lt;Group&gt;">
								<path id="&lt;Path&gt;" class="s2" d="m750 683.9h15.7"/>
								<path id="&lt;Path&gt;" class="s2" d="m740.3 689.7h35.2"/>
								<path id="&lt;Path&gt;" class="s2" d="m751 696.4h13.8"/>
							</g>
						</g>
					</g>
				</g>
				<g id="&lt;Group&gt;">
					<g id="&lt;Group&gt;">
						<g id="&lt;Group&gt;">
							<path id="&lt;Path&gt;" class="s2" d="m881.4 662.9h-248.5"/>
							<g id="&lt;Group&gt;">
								<path id="&lt;Path&gt;" class="s2" d="m788.2 527.1h-62.2v-20.4h62.2z"/>
								<path id="&lt;Path&gt;" class="s2" d="m796.1 545.8h-77.9v-8.4h77.9z"/>
							</g>
							<g id="&lt;Group&gt;">
								<path id="&lt;Path&gt;" class="s2" d="m842.9 656.1h31.3"/>
								<path id="&lt;Path&gt;" class="s2" d="m868.3 651h5.9"/>
							</g>
							<g id="&lt;Group&gt;">
								<path id="&lt;Path&gt;" class="s2" d="m739.9 510.5h35.9"/>
								<path id="&lt;Path&gt;" class="s2" d="m732.9 516.5h49.9"/>
							</g>
							<g id="&lt;Group&gt;">
								<path id="&lt;Path&gt;" class="s2" d="m631.2 496.2h12.4"/>
								<path id="&lt;Path&gt;" class="s2" d="m631.2 504.5h38.4"/>
							</g>
						</g>
					</g>
				</g>
			</g>
		</g>
		<g id="&lt;Group&gt;">
			<g id="&lt;Group&gt;">
				<g id="&lt;Group&gt;">
					<path id="&lt;Path&gt;" class="s0" d="m176.6 461.7q64.2 14 128.4 28c-19.5-58.3 53.4-96.4 33.8-154.7q-64.2-14-128.4-28c19.6 58.3-53.3 96.4-33.8 154.7z"/>
				</g>
				<g id="&lt;Group&gt;">
					<path id="&lt;Compound Path&gt;" class="s2" d="m263.3 424.2l-23.1-4.4 0.4-2.3q1.2-5.9 3.2-9.3 2-3.5 5.2-6 3.3-2.6 14-8.5 5.7-3.1 6.3-6.4 0.6-3.3-1-5.6-1.6-2.2-5.6-3-4.4-0.8-7.7 1.5-3.4 2.4-5.5 9.3l-23.1-7.4q3.7-12.7 13.4-19.1 9.8-6.4 26.8-3.2 13.3 2.5 20.4 9.6 9.6 9.6 7.3 22.1-1 5.1-4.8 9.4-3.7 4.3-13.9 9.5-7 3.7-9.2 6.4-2.2 2.6-3.1 7.4zm-25.1 1.6l24.8 4.7-4.1 21.8-24.8-4.7z"/>
				</g>
			</g>
			<g id="&lt;Group&gt;">
				<g id="&lt;Group&gt;">
					<path id="&lt;Path&gt;" class="s0" d="m640.8 401.1q56.6-33.4 113.1-66.8c-54-29.4-26.5-107-80.5-136.4q-56.6 33.4-113.2 66.9c54 29.4 26.6 106.9 80.6 136.3z"/>
				</g>
				<g id="&lt;Group&gt;">
					<path id="&lt;Compound Path&gt;" class="s2" d="m679 309.8l-20.5 11.5-1.1-2q-3-5.3-3.6-9.2-0.7-3.9 0.2-8 0.8-4 5.2-15.4 2.3-6 0.6-9-1.6-3-4.3-3.6-2.7-0.7-6.3 1.3-3.8 2.2-4.9 6.1-1 4 1.8 10.7l-22.4 9.2q-5.4-12.1-2.1-23.3 3.4-11.2 18.5-19.7 11.7-6.6 21.7-5.8 13.6 1.1 19.8 12.2 2.6 4.6 2.5 10.3-0.1 5.6-4.5 16.2-3 7.4-3 10.8 0.1 3.4 2.4 7.7zm-18.1 17.4l22-12.4 10.9 19.3-22 12.4z"/>
				</g>
			</g>
			<g id="&lt;Group&gt;">
				<g id="&lt;Group&gt;">
					<path id="&lt;Path&gt;" class="s0" d="m746.2 616.1q-56.6-33.5-113.2-66.9c54-29.4 26.6-106.9 80.6-136.3q56.6 33.4 113.1 66.8c-54 29.4-26.5 107-80.5 136.4z"/>
				</g>
				<g id="&lt;Group&gt;">
					<path id="&lt;Compound Path&gt;" class="s2" d="m733.1 533.1l-21-10.5 1.1-2.1q2.7-5.4 5.6-8.1 2.9-2.8 6.7-4.3 3.7-1.6 15.7-4.3 6.3-1.4 7.8-4.5 1.5-3 0.6-5.6-1-2.6-4.6-4.5-3.9-1.9-7.8-0.6-3.9 1.3-7.9 7.4l-20.1-13.4q7-11.3 18.2-14.8 11.1-3.4 26.6 4.3 12.1 6.1 16.9 14.9 6.7 11.8 1 23.2-2.4 4.7-7.2 7.8-4.8 3-16 5.3-7.8 1.6-10.6 3.6-2.8 1.9-5 6.2zm-24.5-5.3l22.5 11.3-10 19.9-22.5-11.3z"/>
				</g>
			</g>
		</g>
		<g id="&lt;Group&gt;">
			<g id="&lt;Group&gt;">
				<g id="&lt;Group&gt;">
					<path id="&lt;Path&gt;" class="s3" d="m468.4 301.5c0 0 32.4-47.3 72.9-23.8 50.8 29.6-10.5 99.9 27 120.2 37.5 20.3 76.3 21.9 87.1 78.2 14.1 73.6-119 177-231.5 111.5-112.5-65.5-72.5-188-19.6-212.4 63.5-29.4 64.1-73.7 64.1-73.7z"/>
					<path id="&lt;Path&gt;" class="s4" d="m514.6 426.9v50.5c0 8.4-3.4 16-9 21.5-5.4 5.5-13.1 8.9-21.5 8.9-16.8 0-30.4-13.6-30.4-30.4v-50.5z"/>
					<g id="&lt;Group&gt;">
						<path id="&lt;Path&gt;" class="s4" d="m387.2 392.4c2.5 12.3 14.5 20.3 26.9 17.7 12.3-2.5 20.3-14.5 17.8-26.9-2.6-12.3-14.6-20.3-27-17.8-12.3 2.6-20.3 14.6-17.7 27z"/>
						<path id="&lt;Path&gt;" class="s3" d="m421.4 354.2v38.4c0 0-15.3-13.5-14.9-40.2z"/>
						<path id="&lt;Path&gt;" class="s2" d="m393.4 383.7l18.1 12.2"/>
					</g>
					<g id="&lt;Group&gt;">
						<path id="&lt;Path&gt;" class="s4" d="m519.2 387.8c2.6 12.3 14.6 20.3 27 17.8 12.3-2.6 20.3-14.6 17.7-27-2.5-12.3-14.5-20.3-26.9-17.7-12.3 2.5-20.3 14.5-17.8 26.9z"/>
						<path id="&lt;Path&gt;" class="s3" d="m541.6 383.2c0 0 13-14.3 8.4-48.1h-18.2z"/>
						<path id="&lt;Path&gt;" class="s2" d="m537.8 393.3l17.7-17.2"/>
					</g>
					<path id="&lt;Path&gt;" class="s4" d="m481.5 294.1c-33.2 0-60.1 26.9-60.1 60.1v43.7c0 9.3 4.7 17.9 12.6 22.8l33.2 20.8c8.8 5.4 19.8 5.4 28.5 0l33.3-20.8c7.8-4.9 12.6-13.5 12.6-22.8v-43.7c0-33.2-26.9-60.1-60.1-60.1z"/>
					<path id="&lt;Path&gt;" class="s2" d="m453.7 433.5l13.5 8.5c8.8 5.4 19.8 5.4 28.5 0"/>
					<path id="&lt;Path&gt;" class="s2" d="m476.4 294.1l15.1 103.8h-18.9"/>
					<path id="&lt;Path&gt;" class="s5" d="m538.9 384.7c0 8.5-6.9 15.4-15.4 15.4-8.5 0-15.4-6.9-15.4-15.4 0-8.5 6.9-15.4 15.4-15.4 8.5 0 15.4 6.9 15.4 15.4z"/>
					<path id="&lt;Path&gt;" class="s5" d="m457 384.7c0 8.5-6.8 15.4-15.3 15.4-8.5 0-15.4-6.9-15.4-15.4 0-8.5 6.9-15.4 15.4-15.4 8.5 0 15.3 6.9 15.3 15.4z"/>
					<g id="&lt;Group&gt;">
						<path id="&lt;Path&gt;" class="s3" d="m514.6 370c0 5.3-2.4 9.6-5.3 9.6-2.9 0-5.3-4.3-5.3-9.6 0-4.3 1.5-8 3.7-9.2l6.5 5.8c0.2 1 0.4 2.2 0.4 3.4z"/>
						<path id="&lt;Path&gt;" class="s3" d="m459 370c0 5.3-2.4 9.6-5.3 9.6-3 0-5.3-4.3-5.3-9.6 0-1.5 0.2-3 0.6-4.3l7.4-3.9c1.6 1.7 2.6 4.7 2.6 8.2z"/>
					</g>
					<path id="&lt;Path&gt;" class="s3" d="m551.7 285.9c-40.5-23.6-83.3 15.5-83.3 15.5 0 0-0.6 44.4-64.1 73.8-13.4 6.2-31.4 28.2-39.8 41.6 0 0 18.6-53.6 24.4-88.2 5.9-34.7 36.7-29.4 36.7-29.4 0 0 18.7-45.6 70.3-45.4 35.8 0.2 55.8 32.1 55.8 32.1z"/>
					<path id="&lt;Path&gt;" class="s3" d="m510.6 332.3c7.3-4.7 11.9-3.7 10.8 6.5z"/>
					<path id="&lt;Path&gt;" class="s3" d="m437.1 341c-1.6-8.6 1.1-12.5 10.1-7.6z"/>
				</g>
				<path id="&lt;Path&gt;" class="s2" d="m471.8 415.4c8-10.8 18-6.4 20.6 0"/>
			</g>
			<g id="&lt;Group&gt;">
				<path id="&lt;Path&gt;" class="s4" d="m739.7 620.1c9.9-12.4 7.9-30.5-4.6-40.4l-111.6-89c-12.4-9.9-30.5-7.8-40.4 4.6-9.9 12.4-7.8 30.5 4.6 40.4l111.6 88.9c12.4 9.9 30.5 7.9 40.4-4.5z"/>
				<path id="&lt;Path&gt;" class="s4" d="m233.3 625c-9.9-12.4-7.8-30.5 4.6-40.4l111.6-89c12.4-9.9 30.5-7.8 40.4 4.6 9.9 12.4 7.8 30.5-4.6 40.4l-111.6 88.9c-12.4 9.9-30.5 7.9-40.4-4.5z"/>
				<path id="&lt;Path&gt;" class="s6" d="m574.5 461.9l-83 27.5v0.9l-85.7-28.4c-27.1-9.1-53 16.5-44.4 43.7l64.3 203.2h65.8 49.2l78.3-203.2c8.6-27.2-17.3-52.8-44.5-43.7z"/>
				<path id="&lt;Path&gt;" class="s6" d="m525.8 519.6l8.5-56.4-96.7-9.4 9 65.8z"/>
				<g id="&lt;Group&gt;">
					<path id="&lt;Compound Path&gt;" fill-rule="evenodd" class="s3" d="m497 525.6c16.6 0 30.9-11.4 34.5-34.8 0 0-4.9 105.5-37.6 105.5q-2.5 0-5.2-0.9c-37.4-11.9-48.9-123.1-48.9-123.1 11.5 35.2 36.2 53.3 57.2 53.3zm-7.9 68.4q2.5 0.8 4.8 0.8c15.9 0 24.8-28 29.6-51.5 2.8-13.9 4.4-27.9 5.4-38-6.1 13.8-17.6 21.8-31.9 21.8-18.1 0-40.7-13.3-54.1-42.7 4.2 29.1 17.5 100.4 46.2 109.6z"/>
				</g>
				<g id="&lt;Group&gt;">
					<path id="&lt;Path&gt;" class="s7" d="m402.6 673.3l159.8-8.6-14 40.5-133-1.5z"/>
					<path id="&lt;Path&gt;" class="s7" d="m548.4 705.2c0 0 54.7 50.6 58 140.8h-244.8c0-84.8 53.8-142.3 53.8-142.3z"/>
					<path id="&lt;Path&gt;" class="s8" d="m485.6 714.3l3.3 67c0 0-13.1-5.3-12.8-27.7"/>
					<path id="&lt;Path&gt;" class="s8" d="m577.7 742.5h-39.7c0 0 18.5 43.1 57.8 39.4"/>
					<path id="&lt;Path&gt;" class="s8" d="m367.5 788.1c0 0 29.2 7 55.2-34.6"/>
					<g id="&lt;Group&gt;">
						<path id="&lt;Path&gt;" class="s9" d="m447.6 712.1h-27.7v-13.8h27.7z"/>
						<path id="&lt;Path&gt;" class="s9" d="m541.4 712.1h-27.6v-13.8h27.6z"/>
						<path id="&lt;Path&gt;" class="s9" d="m502.5 712.1h-42.1v-13.8h42.1z"/>
						<path id="&lt;Path&gt;" class="s0" d="m491.8 714.9h-20.6v-19.4h20.6z"/>
					</g>
				</g>
				<path id="&lt;Path&gt;" class="s4" d="m242 581.2c17-10.6 39.3-5.4 49.9 11.5l72.2 129.9-22.1 25.6-111.5-117c-10.6-17-5.5-39.4 11.5-50z"/>
				<g id="&lt;Group&gt;">
					<g id="&lt;Group&gt;">
						<path id="&lt;Path&gt;" class="s4" d="m355.1 714.7c29.3-0.1 55.7-14.9 55.7-14.9l16.4 51.4c-48.1 18.2-72.4 6.2-85.3-2.9z"/>
						<path id="&lt;Path&gt;" class="s4" d="m410.8 699.8c0 0 26.9-2.4 46.2 10.4l3.4 32c0 0-22.4-7.4-36.8-2.5 0 0 24.8 4.7 34.5 15.2l-6.8 6.9c0 0-21.6-9.5-44.8-6.2z"/>
					</g>
					<path id="&lt;Path&gt;" class="s2" d="m457.7 718.3c0 0-22.5-7.3-39.4-7.7"/>
					<path id="&lt;Path&gt;" class="s2" d="m459.2 730.8c0 0-19.8-7.9-40.3-6.4"/>
				</g>
				<g id="&lt;Group&gt;">
					<path id="&lt;Path&gt;" class="s10" d="m318.3 486.8l37.7 40.5 22 56.8-38.4-43.5z"/>
					<path id="&lt;Path&gt;" class="s6" d="m372.8 467.8l-64.9 39.2 45.7 74.9 42.5-29z"/>
					<path id="&lt;Path&gt;" class="s0" d="m318.3 486.8l21.3 53.8 38.4 43.5-32.2 12-30.2-41.2-21-52.6z"/>
				</g>
				<path id="&lt;Path&gt;" class="s2" d="m301 609l-9.1-16.3"/>
				<path id="&lt;Path&gt;" class="s4" d="m731 576.3c-16.9-10.6-39.3-5.4-49.9 11.5l-72.2 129.9 22.1 25.6 111.5-117c10.7-17 5.5-39.3-11.5-50z"/>
				<g id="&lt;Group&gt;">
					<g id="&lt;Group&gt;">
						<path id="&lt;Path&gt;" class="s4" d="m617.9 709.8c-29.3-0.1-55.7-14.9-55.7-14.9l-16.4 51.4c48.1 18.2 72.4 6.2 85.3-2.9z"/>
						<path id="&lt;Path&gt;" class="s4" d="m562.2 694.9c0 0-26.9-2.4-46.2 10.4l-3.4 32c0 0 22.4-7.4 36.8-2.5 0 0-24.8 4.7-34.5 15.2l6.9 6.9c0 0 21.5-9.5 44.8-6.2z"/>
					</g>
					<path id="&lt;Path&gt;" class="s2" d="m515.4 713.4c0 0 22.4-7.2 39.3-7.7"/>
					<path id="&lt;Path&gt;" class="s2" d="m513.8 725.9c0 0 19.8-7.9 40.3-6.4"/>
				</g>
				<g id="&lt;Group&gt;">
					<path id="&lt;Path&gt;" class="s10" d="m654.7 481.9l-37.6 40.5-22.1 56.8 38.4-43.5z"/>
					<path id="&lt;Path&gt;" class="s6" d="m600.2 462.9l64.9 39.2-45.6 74.9-42.6-29z"/>
					<path id="&lt;Path&gt;" class="s0" d="m654.7 481.9l-21.3 53.8-38.4 43.5 32.3 12 30.1-41.2 21-52.6z"/>
				</g>
				<path id="&lt;Path&gt;" class="s2" d="m672 604.1l9.1-16.3"/>
			</g>
		</g>
		<g id="&lt;Group&gt;">
			<g id="&lt;Group&gt;">
				<g id="&lt;Group&gt;">
					<g id="&lt;Group&gt;">
						<path id="&lt;Path&gt;" class="s11" d="m601 846h-233c-1.6 0-2.9-1.3-2.9-3v-2.6h238.8v2.6c0 1.7-1.3 3-2.9 3z"/>
					</g>
					<g id="&lt;Group&gt;">
						<path id="&lt;Path&gt;" class="s1" d="m533.9 755.7h-98.6v33.7c32.5-7.4 65.6-13.5 98.6-19.2z"/>
					</g>
					<g id="&lt;Group&gt;">
						<path id="&lt;Path&gt;" class="s11" d="m435.3 789.4v35h98.6v-54.2c-33 5.7-66.1 11.8-98.6 19.2z"/>
					</g>
					<g id="&lt;Group&gt;">
						<path id="&lt;Path&gt;" class="s11" d="m602.7 842h-236.1c-1.6 0-2-2.2-0.4-2.7l69.1-22.8h98.6l69.2 22.8c1.5 0.5 1.2 2.7-0.4 2.7z"/>
					</g>
					<g id="&lt;Group&gt;">
						<path id="&lt;Path&gt;" class="s2" d="m522.7 816.5h8.9"/>
						<path id="&lt;Path&gt;" class="s2" d="m435.3 816.5h78.3"/>
						<g id="&lt;Group&gt;">
							<path id="&lt;Path&gt;" class="s2" d="m435.3 789.4l74.2-14.9"/>
						</g>
						<path id="&lt;Path&gt;" class="s2" d="m533.9 755.7v60.8"/>
						<path id="&lt;Path&gt;" class="s2" d="m433.3 842h167.8"/>
						<path id="&lt;Path&gt;" class="s2" d="m435.3 759.8v51.5"/>
					</g>
				</g>
				<g id="&lt;Group&gt;">
					<path id="&lt;Path&gt;" class="s11" d="m678.2 763.3h-387.2c-9.3 0-16.8-7.5-16.8-16.8v-255.7c0-9.3 7.5-16.7 16.8-16.7h387.2c9.2 0 16.7 7.4 16.7 16.7v255.7c0 9.3-7.5 16.8-16.7 16.8z"/>
				</g>
				<path id="&lt;Path&gt;" class="s2" d="m694.9 535.5v211c0 9.3-7.5 16.8-16.7 16.8h-185.3"/>
				<path id="&lt;Path&gt;" class="s2" d=""/>
				<path id="&lt;Path&gt;" class="s2" d="m274.2 708.8v-218c0-9.3 7.5-16.7 16.8-16.7h387.2"/>
			</g>
			<g id="&lt;Group&gt;">
				<g id="&lt;Group&gt;">
					<path id="&lt;Path&gt;" class="s0" d="m567.2 579c-11.5 0-22 3.9-30.4 10.5q0-0.2 0-0.5c0-28.8-23.4-52.2-52.2-52.2-28.9 0-52.3 23.4-52.3 52.2q0 0.3 0 0.5c-8.3-6.6-18.9-10.5-30.3-10.5-27.1 0-49.1 21.9-49.1 49 0 27.1 22 49 49.1 49q0.9 0 1.9 0 0.9 0 1.9 0h158.3q0.8 0 1.6 0 0.7 0 1.5 0c27.1 0 49-21.9 49-49 0-27.1-21.9-49-49-49z"/>
					<path id="&lt;Path&gt;" class="s2" d="m567.2 579c-11.5 0-22 3.9-30.4 10.5q0-0.2 0-0.5c0-28.8-23.4-52.2-52.2-52.2-28.9 0-52.3 23.4-52.3 52.2q0 0.3 0 0.5c-8.3-6.6-18.9-10.5-30.3-10.5-27.1 0-49.1 21.9-49.1 49 0 27.1 22 49 49.1 49q0.9 0 1.9 0 0.9 0 1.9 0"/>
				</g>
				<g id="&lt;Group&gt;">
					<path id="&lt;Path&gt;" class="s3" d="m435.9 659.5c0-26.8 21.8-48.6 48.7-48.6 26.9 0 48.7 21.8 48.7 48.6 0 26.9-21.8 48.7-48.7 48.7-26.9 0-48.7-21.8-48.7-48.7z"/>
					<g id="&lt;Group&gt;">
						<path id="&lt;Path&gt;" class="s0" d="m505.3 677.7l-18.1-18.2 18.1-18.1c0.8-0.7 0.8-1.9 0-2.6-0.7-0.7-1.9-0.7-2.6 0l-18.1 18.1-18.1-18.1c-0.8-0.7-2-0.7-2.7 0-0.7 0.7-0.7 1.9 0 2.6l18.1 18.1-18.1 18.2c-0.7 0.7-0.7 1.9 0 2.6 0.7 0.7 1.9 0.7 2.7 0l18.1-18.1 18.1 18.1c0.7 0.7 1.9 0.7 2.6 0 0.8-0.7 0.8-1.9 0-2.6z"/>
					</g>
				</g>
			</g>
		</g>
		<g id="&lt;Group&gt;">
			<g id="&lt;Group&gt;">
				<g id="&lt;Group&gt;">
					<path id="&lt;Path&gt;" class="s9" d="m348.2 780.6v32.7h-220.5v-32.7z"/>
					<path id="&lt;Path&gt;" class="s0" d="m254.7 784.1v25.8h-118.9v-25.8z"/>
					<g id="&lt;Group&gt;">
						<path id="&lt;Path&gt;" class="s9" d="m141.7 785.7v22.5h-2.7v-22.5z"/>
						<path id="&lt;Path&gt;" class="s9" d="m249.7 785.7v22.5h-2.7v-22.5z"/>
					</g>
					<g id="&lt;Group&gt;">
						<path id="&lt;Path&gt;" class="s1" d="m306.9 785.2c6.5 0 11.8 5.2 11.8 11.8 0 6.5-5.3 11.8-11.8 11.8-6.5 0-11.8-5.3-11.8-11.8 0-6.6 5.3-11.8 11.8-11.8z"/>
						<path id="&lt;Path&gt;" class="s11" d="m306.9 787c5.5 0 10 4.4 10 10 0 5.5-4.5 10-10 10-5.6 0-10-4.5-10-10 0-5.6 4.4-10 10-10z"/>
					</g>
				</g>
				<g id="&lt;Group&gt;">
					<path id="&lt;Path&gt;" class="s2" d="m344.5 810.4v-5.4"/>
					<path id="&lt;Path&gt;" class="s2" d="m340.4 810.4v-3.1"/>
				</g>
			</g>
			<g id="&lt;Group&gt;">
				<g id="&lt;Group&gt;">
					<path id="&lt;Path&gt;" class="s6" d="m348.2 813.3v32.7h-220.5v-32.7z"/>
					<path id="&lt;Path&gt;" class="s0" d="m254.7 816.7v25.8h-118.9v-25.8z"/>
					<g id="&lt;Group&gt;">
						<path id="&lt;Path&gt;" class="s11" d="m141.7 818.4v22.5h-2.7v-22.5z"/>
						<path id="&lt;Path&gt;" class="s11" d="m249.7 818.4v22.5h-2.7v-22.5z"/>
					</g>
					<g id="&lt;Group&gt;">
						<path id="&lt;Path&gt;" class="s9" d="m306.9 817.8c6.5 0 11.8 5.3 11.8 11.8 0 6.5-5.3 11.8-11.8 11.8-6.5 0-11.8-5.3-11.8-11.8 0-6.5 5.3-11.8 11.8-11.8z"/>
						<path id="&lt;Path&gt;" class="s11" d="m306.9 819.6c5.5 0 10 4.5 10 10 0 5.6-4.5 10-10 10-5.6 0-10-4.4-10-10 0-5.5 4.4-10 10-10z"/>
					</g>
				</g>
				<g id="&lt;Group&gt;">
					<path id="&lt;Path&gt;" class="s2" d="m340.9 821.3v2.8"/>
					<path id="&lt;Path&gt;" class="s2" d="m345 829.5v-7.3"/>
				</g>
			</g>
		</g>
		<path id="&lt;Path&gt;" class="s12" d="m67.7 846h833.7"/>
		<g id="&lt;Group&gt;">
			<g id="&lt;Group&gt;">
				<path id="&lt;Compound Path&gt;" class="s7" d="m850.5 365.2c-3.8-0.9-7.4-2.6-10.4-5l0.9-1.3c2.9 2.3 6.3 4 9.9 4.8zm11.5 0l-0.3-1.6c3.5-0.8 6.9-2.4 9.8-4.7l1 1.2c-3.1 2.4-6.7 4.2-10.5 5.1zm-29.2-14.1c-1.7-3.5-2.6-7.3-2.6-11.3h1.6c0 3.7 0.8 7.3 2.4 10.6zm46.9 0l-1.4-0.7c1.6-3.3 2.4-6.9 2.4-10.6l1.1-0.1h0.5c0 4-0.9 7.8-2.6 11.4zm-45.5-21.9l-1.5-0.7c1.7-3.5 4.2-6.6 7.3-9.1l0.9 1.3c-2.8 2.3-5.2 5.2-6.7 8.5zm44.1-0.1c-1.6-3.3-4-6.2-6.9-8.5l1-1.3c3.1 2.5 5.6 5.6 7.3 9.1zm-27.6-13.2l-0.3-1.5q2.9-0.7 5.9-0.7 0 0 0 0 2.9 0 5.7 0.7l-0.4 1.5q-2.6-0.6-5.3-0.6 0 0 0 0-2.8 0-5.6 0.6z"/>
			</g>
			<g id="&lt;Group&gt;">
				<path id="&lt;Compound Path&gt;" class="s7" d="m99.7 402.1q0 0 0 0h-0.4v-1.6h0.4q0 0 0 0c3.5 0 7-0.4 10.4-1.1l0.3 1.5c-3.5 0.8-7.1 1.2-10.7 1.2zm-11.6-1.4c-3.6-0.8-7.1-2.1-10.5-3.8l0.7-1.4c3.3 1.6 6.7 2.8 10.2 3.7zm32.9-3.4l-0.7-1.5c3.3-1.5 6.4-3.4 9.2-5.7l1 1.3c-3 2.3-6.2 4.3-9.5 5.9zm-52.8-6.5c-2.9-2.4-5.6-5.1-7.8-8l1.2-1c2.2 2.8 4.8 5.5 7.6 7.8zm70.2-7.3l-1.2-1c2.3-2.9 4.2-5.9 5.8-9.2l1.4 0.7c-1.6 3.4-3.6 6.5-6 9.5zm-83.9-10.3c-1.5-3.4-2.7-7-3.5-10.7l1.6-0.3c0.7 3.5 1.8 7 3.4 10.3zm93.6-9.7l-1.5-0.4c0.8-3.5 1.2-7.1 1.2-10.8h1.5c0 3.8-0.4 7.5-1.2 11.2zm-96.6-12.1h-1.6c0.1-3.7 0.6-7.5 1.5-11.1l1.5 0.4c-0.9 3.5-1.4 7.1-1.4 10.7zm95.4-8.1c-0.7-3.6-1.7-7.1-3.2-10.4l1.4-0.6c1.6 3.4 2.7 7 3.4 10.7zm-90.3-12.8l-1.4-0.7c1.7-3.3 3.8-6.5 6.2-9.3l1.2 1c-2.3 2.8-4.3 5.8-6 9zm81.6-6.9c-2.2-2.9-4.7-5.6-7.4-7.9l1-1.2c2.8 2.4 5.4 5.1 7.6 8.1zm-67.7-9.6l-0.9-1.2c2.9-2.3 6.2-4.2 9.6-5.7l0.6 1.4c-3.3 1.5-6.4 3.4-9.3 5.5zm51.3-4.3c-3.2-1.7-6.6-3-10.1-3.9l0.4-1.6c3.6 1 7.1 2.3 10.5 4.1zm-31.7-4.5l-0.3-1.6c3.2-0.6 6.5-0.9 9.8-0.9q0.7 0 1.3 0v1.6c-0.5 0-0.9-0.1-1.3-0.1-3.2 0-6.4 0.4-9.5 1z"/>
			</g>
			<g id="&lt;Group&gt;">
				<path id="&lt;Path&gt;" class="s7" d="m161.3 380c0 8.3-6.7 15-15 15-8.3 0-15-6.7-15-15 0-8.3 6.7-15 15-15 8.3 0 15 6.7 15 15z"/>
			</g>
			<g id="&lt;Group&gt;">
				<path id="&lt;Path&gt;" class="s7" d="m684.5 116.2c0 6.1-4.9 11-11 11-6.1 0-11.1-4.9-11.1-11 0-6.1 5-11.1 11.1-11.1 6.1 0 11 5 11 11.1z"/>
			</g>
			<g id="&lt;Group&gt;">
				<path id="&lt;Path&gt;" class="s7" d="m846 320.8c0 4.4-3.5 7.9-7.9 7.9-4.3 0-7.9-3.5-7.9-7.9 0-4.4 3.6-7.9 7.9-7.9 4.4 0 7.9 3.5 7.9 7.9z"/>
			</g>
			<g id="&lt;Group&gt;">
				<path id="&lt;Path&gt;" class="s7" d="m315 258.9c0 6.6-5.3 11.9-11.9 11.9-6.5 0-11.8-5.3-11.8-11.9 0-6.5 5.3-11.8 11.8-11.8 6.6 0 11.9 5.3 11.9 11.8z"/>
			</g>
			<g id="&lt;Group&gt;">
				<path id="&lt;Compound Path&gt;" class="s7" d="m324.4 295.2q-1.4 0-2.8-0.2l0.2-1.5c3.6 0.4 7.2 0 10.4-1.4l0.7 1.4c-2.7 1.1-5.5 1.7-8.5 1.7zm-13.2-4.6c-3-2.4-5.3-5.5-6.7-9.1l1.5-0.6c1.2 3.3 3.4 6.3 6.2 8.5zm30.5-4.2l-1.3-1c2.1-2.8 3.4-6.2 3.7-9.8l1.5 0.2c-0.3 3.8-1.7 7.5-3.9 10.6zm-37-12.5h-1.6c0-3.9 1-7.7 3-10.9l1.4 0.8c-1.9 3-2.8 6.5-2.8 10.1zm37.5-8.6c-1.6-3.2-4-5.9-6.9-7.9l0.8-1.3c3.2 2.1 5.8 5 7.5 8.5zm-27.1-8.8l-0.8-1.4c3.4-1.8 7.3-2.7 11.1-2.5l-0.1 1.6c-3.5-0.2-7.1 0.6-10.2 2.3z"/>
			</g>
			<g id="&lt;Group&gt;">
				<path id="&lt;Compound Path&gt;" class="s7" d="m697.7 158.5c-3.8-0.3-7.5-1.4-10.9-3.2l0.8-1.4c3.2 1.7 6.6 2.7 10.2 3zm11.2-1.5l-0.5-1.5c3.4-1.1 6.5-3 9.1-5.5l1.1 1.2c-2.8 2.6-6.1 4.6-9.7 5.8zm-30.7-8.9c-2.4-3-4.1-6.4-5.1-10.1l1.5-0.4c0.9 3.5 2.6 6.7 4.8 9.6zm47-6.2l-1.5-0.6c1.5-3.3 2.2-6.8 2.2-10.4h1.6c0 3.8-0.8 7.5-2.3 11zm0.5-13.9c-0.4-3.6-1.5-7-3.3-10.1l1.4-0.8c1.9 3.3 3.1 6.9 3.5 10.7zm-51.7-1l-1.5-0.3c0.6-3.8 1.9-7.3 3.9-10.6l1.4 0.9c-2 3-3.2 6.4-3.8 10zm41.3-17c-2.9-2.2-6.1-3.7-9.6-4.5l0.3-1.5c3.7 0.8 7.2 2.4 10.3 4.7zm-30.2-0.6l-0.9-1.3c3.2-2.2 6.7-3.6 10.5-4.3l0.3 1.5c-3.6 0.7-6.9 2-9.9 4.1z"/>
			</g>
		</g>
	</g>
</svg>